<svg xmlns="http://www.w3.org/2000/svg" version="1.1" viewBox="0 0 1200 630"><path d="M0 0h1200v630H0V0Z" fill="#FDFDFD"/><path d="M330.02 109.254A235.34 235.34 0 0 1 338 116l2.512 2.145C368.054 142.142 384.354 174.89 389 211c2.76 44.466-9.427 83.244-38.605 117.016C343.9 335.546 338.767 343.315 334 352l-1.719 3.035c-3.603 6.978-5.196 13.738-6.719 21.402-2.6 13.008-6.41 25.279-17.562 33.563-8.111 4.961-16.046 7.302-25.515 7.29l-2.491.02c-2.701.02-5.402.024-8.103.026l-5.676.02c-3.96.012-7.921.016-11.882.015-5.051 0-10.102.027-15.153.061-3.907.022-7.814.026-11.721.025-1.861.003-3.722.011-5.583.027-13.955.106-25.77-1.082-36.876-10.484-7.978-8.09-11.636-17.893-13.5-28.938-3.648-21.556-15.952-39.71-30.563-55.5C124.85 304.73 114.965 281.278 110 258l-.508-1.945c-2.034-8.522-1.89-17.16-1.867-25.868l.003-2.496c.045-12.928.736-25.208 4.372-37.691l.7-2.457c8.88-30.17 27.097-57.594 52.3-76.543.775-.59 1.55-1.18 2.348-1.79 47.775-34.933 114.938-35.587 162.672.044Z" fill="#CE9A32"/><path d="M305 141c3.867 2.8 7.46 5.799 11 9l2.773 2.488c17.83 16.856 30.636 42.315 31.465 67.047.474 27.352-4.406 51.294-21.238 73.465l-2.113 2.816C310.483 316.766 286.393 330.976 260 335c-22.124 1.958-42.823-1.773-62-13l-2.969-1.648C175.887 309.074 163.466 291.625 154 272l-1.375-2.738c-10.44-22.962-9.404-52.276-1.117-75.614 5.79-15.387 13.967-28.002 25.492-39.648l2.02-2.203C211.748 116.794 266.48 116.024 305 141Z" fill="#FDFCFB"/><path d="M1069 164c1 1 1 1 1.12 3.816l-.006 3.815v2.099c0 2.3-.009 4.6-.016 6.899l-.005 4.771c-.003 4.194-.013 8.388-.024 12.582-.012 5.027-.017 10.055-.023 15.083-.01 7.645-.029 15.29-.046 22.935h-47c-1.438-16.688-1.438-16.688-1.885-21.928l-.361-4.146-.18-2.147c-.323-3.653-.766-7.201-1.574-10.779-25.336-5.436-51.32-5.715-74 8-14.092 9.25-22.805 24.039-26.457 40.309L918 248l-.519 2.304c-3.897 21.844.094 44.466 12.62 62.766 10.83 14.043 26.84 21.451 44.067 24.489 17.19 1.98 33.633.516 49.832-5.559l1-40h-48v-32h116v32h-19v64c-23.65 11.31-43.643 18.631-69 22l-2.242.313c-17.163 2.184-34.898 1.45-51.758-2.313l-4.02-.809c-26.46-5.636-49.52-20.907-64.625-43.382C865.51 305.424 860.774 271.479 867 241l.672-3.664c5.55-26.13 21.47-49.76 43.64-64.711 12.873-8.3 26.772-14.197 41.688-17.625l2.146-.496c36.154-7.858 79.29-2.6 113.854 9.496Z" fill="#232492"/><path d="M423 157h184v71h-35l-1.5-14.813-.475-4.663-.369-3.669-.38-3.76C569 198 569 198 569 195h-77v55h64v32h-64v54h77v-9c.175-2.047.39-4.092.656-6.129l.37-2.885.474-3.548L572 303h35v71H423v-38h22V195h-22v-38Z" fill="#222392"/><path d="m754.063 204.875 2.912.027c2.342.024 4.683.056 7.025.098.025 4.053.043 8.105.055 12.158.005 1.373.012 2.746.02 4.12.054 8.632-.177 17.133-1.075 25.722l-3.953.113c-18.227.634-34.094 3.26-47.797 16.414-15.147 16.647-17.647 38.366-17.938 59.848-.033 1.719-.067 3.438-.103 5.156-.086 4.157-.147 8.312-.209 12.469h22v33h-91v-33h22V240h-22v-33h69l1 30 8-10c13.168-14.984 32.36-22.481 52.063-22.125Z" fill="#242592"/><path d="m210.28 435.725 2.738-.015c2.97-.014 5.941-.013 8.912-.01l6.228-.014a4453.3 4453.3 0 0 1 13.037-.002c5.553.006 11.107-.01 16.66-.034 4.286-.015 8.572-.016 12.859-.013 2.046 0 4.093-.005 6.14-.015 2.869-.013 5.737-.006 8.606.006l2.533-.023c6.057.053 12.93.655 17.638 4.847 5.209 6.127 4.62 11.304 4.664 19.077a316.7 316.7 0 0 0 .062 4.16c.316 14.797.316 14.797-4.357 21.311l-1.887 2.871c-2.522 2.541-4.537 3.117-7.926 4.191-4.575 2.096-6.523 4.032-8.386 8.594-1.25 3.527-2.287 7.092-3.301 10.692-1.51 5.114-3.393 8.255-7.916 11.254-5.064 1.975-9.724 1.846-15.115 1.832l-3.362.015c-2.34.007-4.68.006-7.02-.003a958.41 958.41 0 0 0-10.724.052c-2.277.002-4.554.001-6.832-.002l-3.23.034c-6.075-.057-9.69-.446-14.301-4.53-4.665-6.536-9-16.95-9-25l-2.625-.25c-6.865-1.526-11.429-6.157-15.375-11.75-3.903-6.765-3.479-12.867-3.438-20.5l-.06-3.957.002-3.824-.006-3.471c.84-5.436 4.249-9.845 8.502-13.248 5.516-1.971 10.457-2.292 16.28-2.275Z" fill="#CE9930"/><path d="M284 178c4.153.342 6.17 2.825 8.984 5.691l1.396 1.409a856.656 856.656 0 0 1 4.37 4.463c.993 1.007 1.986 2.015 2.98 3.021A1771.21 1771.21 0 0 1 309 200c-1.352 3.03-2.855 5.085-5.23 7.39l-1.936 1.903-2.022 1.957c-4.556 4.434-8.918 8.931-13.068 13.75-2.965 3.4-6.078 6.662-9.182 9.938l-4.23 4.48-2.17 2.294a8471.73 8471.73 0 0 0-10.412 11.038l-2.011 2.134c-4.11 4.366-8.185 8.761-12.239 13.179A362.635 362.635 0 0 1 233 282c-5.798-4.814-11.123-9.992-16.434-15.336l-2.66-2.665a8234.639 8234.639 0 0 1-8.344-8.374l-5.685-5.7c-4.628-4.639-9.254-9.28-13.877-13.925 1.575-4.25 3.317-6.671 6.57-9.863l2.715-2.686 2.84-2.763A1710.825 1710.825 0 0 1 208 211c3.568 1.514 5.837 3.605 8.547 6.352l2.558 2.578 2.645 2.695 2.691 2.719c2.191 2.214 4.377 4.433 6.559 6.656 7.161-3.41 12.058-10.004 17.152-15.934 2.037-2.277 4.173-4.42 6.348-6.566 2.766-2.728 5.413-5.485 7.938-8.438 3.497-4.081 7.298-7.814 11.12-11.59 3.313-3.354 6.382-6.888 9.442-10.472l1-1Z" fill="#ECB248"/><path d="M595 407c5.271 2.337 9.103 6.308 11.375 11.602 1.983 7.61 1.515 15.51-2.094 22.523-2.422 3.545-5.428 5.949-9.281 7.875-5.53.505-10.41.738-15.5-1.625-5.806-5.516-7.574-10.192-7.843-18.01-.177-11.803-.177-11.803 3.878-16.88C581.36 406.582 586.92 405.62 595 407Z" fill="#F7F7F9"/><path d="M899 407c19.643 0 19.643 0 25 3 3.462 3.737 3.508 6.667 3.355 11.586-.507 3.448-1.737 5.16-4.355 7.414-2.14.621-2.14.621-4 1a756174227.69 756174227.69 0 0 0 4.395 8.887c1.548 3.097 1.548 3.097 3.304 5.883C928 447 928 447 928 449h-6l-1.688-3.465c-.769-1.492-1.54-2.982-2.312-4.473l-1.098-2.287-1.152-2.177-1.016-2.016c-2.338-2.44-2.338-2.44-9.734-2.582v17h-6v-42Z" fill="#404293"/><path d="M615 407c20.647 0 20.647 0 26.375 5.125 2.262 4.003 2.44 7.376 1.625 11.875-1.762 3.021-2.745 4.634-6.14 5.625L635 430a756174227.69 756174227.69 0 0 0 4.395 8.887c1.548 3.097 1.548 3.097 3.304 5.883C644 447 644 447 644 449c-2.695.46-2.695.46-6 0-2.117-2.173-3.448-4.715-4.875-7.375l-1.219-2.117C629 434.368 629 434.368 629 432h-8v17h-6v-42Z" fill="#31328E"/><path d="M817 407h6v42h-7l-1.688-3.008A3595.692 3595.692 0 0 0 799 419l-1 30h-6v-41c7 0 7 0 8.817 1.693l1.316 2.366 1.504 2.61c.49.914.982 1.828 1.488 2.769l1.512 2.662A587.96 587.96 0 0 1 811 428l5 9 1-30Z" fill="#414293"/><path d="M721 407h6v42h-6c-1.984-2.21-1.984-2.21-3.75-5.375l-.979-1.71c-1.113-1.96-2.19-3.937-3.271-5.915a2893.04 2893.04 0 0 0-2.734-4.871c-2.452-4.36-4.856-8.744-7.266-13.129l-1 30h-5v-40h6c1.997 2.432 3.426 4.538 4.938 7.25.39.663.782 1.325 1.185 2.008 1.314 2.235 2.594 4.49 3.877 6.742l7 12 1-29Z" fill="#464794"/><path d="M595 407c5.271 2.337 9.103 6.308 11.375 11.602 1.983 7.61 1.515 15.51-2.094 22.523-2.422 3.545-5.428 5.949-9.281 7.875-5.53.505-10.41.738-15.5-1.625-5.806-5.516-7.574-10.192-7.843-18.01-.177-11.803-.177-11.803 3.878-16.88C581.36 406.582 586.92 405.62 595 407Zm-15 9c-2.976 5.316-3.953 10.988-3 17 1.307 3.847 3.078 6.946 5.75 10 3.442 1.53 6.61 1.742 10.25 1 3.5-2.203 5.456-3.962 7.375-7.625 1.128-6.09 1.477-11.908-.563-17.813-2.417-3.417-4.45-6.092-8.738-6.945-4.897-.277-7.741.574-11.074 4.383Z" fill="#292A88"/><path d="M760.414 407.91c1.909.941 3.755 2.005 5.586 3.09l-2 4-2.438-1c-4.299-1.207-8.135-1.809-12.562-1-3.363 2.576-5.397 5.112-7 9-.778 6.6-.362 12.236 3 18 3.028 2.83 5.017 3.373 9.125 3.25.869-.015 1.738-.03 2.633-.047 2.278-.069 2.278-.069 4.242-1.203.468-2.356.468-2.356.625-5.063l.227-2.785L762 432h-9v-5h14c.162 2.919.28 5.829.375 8.75l.152 2.5c.058 2.38.012 4.43-.527 6.75-3.954 3.87-7.446 4.589-12.875 4.625-5.653-.185-9.372-.869-13.57-4.742-5.194-6.29-6.289-12.661-5.996-20.727.807-5.774 2.972-9.83 7.203-13.816 5.699-4.15 12.042-4.922 18.652-2.43Z" fill="#2B2D88"/><path d="M833 407h24v5h-18v13h16v5h-16v14h19v5h-25v-42Z" fill="#343690"/><path d="M866 407h24v5h-18v13h15v4h-15v15h19v5h-25v-42Z" fill="#424398"/><path d="M955.563 408.25C958 410 958 410 958.875 412.188L959 414c-1.75.625-1.75.625-4 1l-1.75-.938c-3.502-1.653-6.396-1.31-10.25-1.062-2.189 1.825-2.189 1.825-2.5 4.375.255 2.82.255 2.82 2.75 4.563 4.2 2.493 8.705 4.47 13.14 6.5 2.798 1.674 3.616 2.51 4.61 5.562.455 5.007.111 8-3 12-3.442 3.306-6.187 3.432-10.875 3.438-7.68-.168-7.68-.168-11-2.188C934 445 934 445 934 441c4 0 4 0 5.93.984 2.534 1.244 4.385 1.283 7.195 1.266l2.633.016c2.444-.055 2.444-.055 4.242-2.266.167-3.083.167-3.083 0-6l-1.513-.747a794.823 794.823 0 0 1-6.8-3.44l-2.38-1.174c-4.375-2.253-7.353-3.883-9.307-8.639-.436-3.488-.235-5.47 1.188-8.688 5.268-6.722 12.742-6.74 20.375-4.062Z" fill="#2B2D88"/><path d="M664 408h24v4h-19v13h16v5h-15v14h19v5h-25v-41Z" fill="#252685"/><path d="M543 407h24v5h-18v13h16v6h-16v18h-6v-42Z" fill="#383991"/><path d="M900 408h14v1l-9 2v17h9v2h4c1.563 1.941 1.563 1.941 3 4.563l1.54 2.753L924 440a1385.2 1385.2 0 0 0 2.375 4c1.625 3 1.625 3 1.625 5h-6a2506.376 2506.376 0 0 1-4.5-7.875c-.43-.746-.859-1.493-1.3-2.262l-1.231-2.168-1.143-2C913 433 913 433 913 431h-9v17h-4v-40Z" fill="#212289"/><path d="m210.36 435.741 2.762-.01c2.995-.01 5.989-.003 8.983.003l6.264-.005c4.367-.003 8.734 0 13.1.01 5.6.012 11.198.005 16.797-.007 4.307-.007 8.615-.005 12.922 0 2.065.002 4.13 0 6.195-.005 2.882-.005 5.763.003 8.645.014l2.587-.012 2.382.017 2.062.002c2.3.299 3.932 1.122 5.941 2.252l-3.78-.01a5729.74 5729.74 0 0 0-35.312.038c-6.05.024-12.101.035-18.153.017-5.842-.018-11.683-.001-17.526.039-2.226.009-4.452.006-6.678-.01-3.125-.019-6.247.005-9.371.04l-2.775-.048c-6.182.13-9.343 1.798-13.818 6.043-3.324 3.96-3.856 7.066-4.001 12.188l-.117 3.652-.094 3.801-.117 3.848A1843.7 1843.7 0 0 0 187 477h-1c-.1-4.02-.172-8.04-.22-12.06-.02-1.366-.047-2.732-.082-4.097-.049-1.97-.069-3.942-.089-5.913l-.063-3.587c.748-5.51 4.158-9.906 8.454-13.343 5.543-1.986 10.507-2.287 16.36-2.259Z" fill="#CFAB5D"/><path d="M776 407h6v42h-6v-42Z" fill="#36378B"/><path d="M697 408c6 0 6 0 7.875 1.75C706 412 706 412 706 416l-3 1-1 31h-5v-40Z" fill="#22227E"/><path d="M905 412c9.864-.357 9.864-.357 14.188 1 2.065 2.28 2.164 3.018 2.312 6-.167 2.607-.33 3.749-1.813 5.938-3.291 2.072-6.096 2.174-9.875 2.125L905 427v-15Zm-284 0c11.048-.295 11.048-.295 15 2 1.525 3.05 1.236 5.642 1 9-1.831 2.616-2.91 2.97-6 4a99.155 99.155 0 0 1-5.188.063L621 427v-15Z" fill="#F4F4F8"/><path d="M793 408h6c.043 1.666.04 3.334 0 5l-1 1c-.16 2.519-.26 5.013-.316 7.535l-.063 2.283c-.066 2.415-.125 4.83-.183 7.245l-.131 4.9A4834.36 4834.36 0 0 0 797 448h-4v-40Z" fill="#1E1E83"/><path d="M867 408h23v4h-18v14l-5 2v-20Z" fill="#1C1D80"/><path d="M555 250h1v32h-64v-2l2.264-.031c7.034-.098 14.068-.2 21.101-.308 3.617-.056 7.233-.109 10.85-.158 3.488-.048 6.976-.1 10.464-.156 1.982-.03 3.964-.056 5.946-.081l3.64-.06 3.217-.048c2.514.007 2.514.007 4.518-1.158l1-28Z" fill="#56579C"/><path d="M792 408h1v40h4a2411.784 2411.784 0 0 1-.11-14.252c-.01-1.615-.024-3.23-.04-4.844a954.817 954.817 0 0 1-.045-6.978l-.032-2.176c0-4.035.437-7.118 2.227-10.75 3.223 3.798 5.745 7.574 8 12l-1 2-3-1-1 2-3-5-1 30h-6v-41Z" fill="#4E4F92"/><path d="M818 408h4v40h-6v-1h5l-1-9h-2v-30Z" fill="#1F2087"/><path d="M669 430h1v14h19v5h-25v-1h24c-1.016-1.24-1.016-1.24-3.133-1.114l-2.777.016-2.998.01-3.154.026-3.167.013c-2.59.012-5.18.028-7.771.049v-5l3-1 1-11Z" fill="#3E4097"/><path d="M916 430h2c1.367 1.941 1.367 1.941 2.875 4.563l1.594 2.753L924 440l1.281 2.152C928 446.745 928 446.745 928 449h-6l-9-16 3-3Z" fill="#2C2C88"/><path d="M722 408h4v29h-4v-29Z" fill="#1D1E87"/><path d="m870 440 1 4h20v4h-24v-7l3-1Z" fill="#1C1E82"/><path d="M636.875 409.125c3.246 1.337 4.357 2.844 6.125 5.875.325 3.032.238 5.964 0 9h-2l-1-2-3 1-2-11h-2v-2c2-1 2-1 3.875-.875Z" fill="#2B2B84"/><path d="M724 435c2 2 2 2 2.195 4.602l-.07 3.023-.055 3.04L726 448c-2.875.188-2.875.188-6 0-2.29-3.435-2.178-4.985-2-9h3c1.705-1.94 1.705-1.94 3-4Z" fill="#252990"/><path d="M753 427h14v18h-1v-17l-3 1-1 3h-9v-5Z" fill="#363785"/><path d="m201 438-2.625 1.125c-4.74 2.633-8.629 5.636-10.375 10.875-.15 2.064-.248 4.131-.316 6.2l-.127 3.661-.12 3.827-.13 3.86A3314.14 3314.14 0 0 0 187 477h-1c-.1-4.02-.172-8.04-.22-12.06-.02-1.366-.047-2.732-.082-4.097-.049-1.97-.069-3.942-.089-5.913l-.063-3.587c.768-5.654 4.232-9.666 8.454-13.343 3.133-1.044 3.99-.934 7 0Z" fill="#C9A355"/><path d="M763 428h3v17l-2-3h-2c-.027-2.146-.046-4.292-.063-6.438l-.035-3.62C762 429 762 429 763 428Z" fill="#1A1A80"/><path d="m700 433 2 1v14h-4c-.054-2.125-.093-4.25-.125-6.375l-.07-3.586C698 435 698 435 700 433Z" fill="#1B1B80"/><path d="M795 428h2v18h-3c-.027-2.813-.047-5.625-.063-8.438l-.025-2.431c-.009-2.044.036-4.088.088-6.131l1-1Z" fill="#202292"/><path d="M187 146c-1.313 2.899-2.727 4.983-4.969 7.234l-1.73 1.739-1.801 1.777-1.8 1.824-1.731 1.723-1.58 1.573C172 163 172 163 170 163v2l-2-1c15.184-18 15.184-18 19-18Z" fill="#FAF5E3"/><path d="m201 218 1 2c-4.659 5.666-4.659 5.666-6.469 7.438-1.764 1.8-3.222 3.722-4.719 5.75l-1.605 2.167L188 237l-2-1c1.476-5.227 4.822-8.168 8.625-11.813l1.852-1.81A836.685 836.685 0 0 1 201 218Z" fill="#E7C070"/><path d="m600 433 2 3 2-1 2 2-3 6-2.313-.5c-2.723-.591-2.723-.591-5.687-.5l1.938-2.25c1.845-2.461 2.623-3.785 3.062-6.75Z" fill="#343691"/><path d="m640 421 2 4a141.4 141.4 0 0 1-5 5h-2l1 4h-2c-.355-3.074-.537-5.941 0-9 3-2.563 3-2.563 6-4Z" fill="#33348E"/><path d="m274 189 1 2c-4.464 5.223-9.074 10.21-14 15l-2-1c4.76-5.593 9.746-10.869 15-16Z" fill="#E7B659"/><path d="M900 408h14v1c-1.416.481-2.833.96-4.25 1.438l-2.39.808c-2.36.754-2.36.754-4.594 1.227L901 413l-1 2v-7Z" fill="#1B1C80"/><path d="m903 179 2 2c-1.72 1.801-3.45 3.59-5.188 5.375l-1.462 1.54c-2.911 2.968-5.355 4.872-9.35 6.085 4.408-5.29 9.076-10.188 14-15Z" fill="#30318C"/><path d="M781 437v11h-4c-.368-7.488-.368-7.488 1.438-10 1.562-1 1.562-1 2.562-1Z" fill="#222490"/><path d="M699 422h2c.08 1.79.14 3.583.188 5.375l.105 3.023L701 433l-3 2c-.027-1.98-.046-3.958-.063-5.938l-.035-3.34C698 423 698 423 699 422Z" fill="#232394"/><path d="m249 215 1 3-10 10-2-1 11-12Z" fill="#E6BE6F"/><path d="m154 120 1 2a367.182 367.182 0 0 1-3.313 4l-1.863 2.25C148 130 148 130 145 130l9-10Z" fill="#CEAB5F"/><path d="M763 428h3a329.01 329.01 0 0 1-.375 4.438l-.21 2.496L765 437l-2 1 .063-2.25c.04-2.692.04-2.692-.625-5L762 429l1-1Z" fill="#1D1F8A"/><path d="m190 229 4 1-6 7-2-1c1.074-2.915 1.778-4.778 4-7Z" fill="#E7B95E"/><path d="M635 442h2l1 5 5-1 1 3c-2.813.313-2.813.313-6 0-1.886-2.389-3-3.919-3-7Z" fill="#373982"/><path d="M266 197c0 4.39-2.128 5.77-5 9l-2-1 7-8Z" fill="#E7BF71"/><path d="m283 228 1 3a90.488 90.488 0 0 1-4 4h-2c1.293-2.884 2.66-4.872 5-7Z" fill="#F9F1D5"/></svg>