<?xml version="1.0" encoding="UTF-8"?>
<svg version="1.1" xmlns="http://www.w3.org/2000/svg" width="1200" height="630">
<path d="M0 0 C396 0 792 0 1200 0 C1200 207.9 1200 415.8 1200 630 C804 630 408 630 0 630 C0 422.1 0 214.2 0 0 Z " fill="#FDFDFD" transform="translate(0,0)"/>
<path d="M0 0 C2.7204273 2.18775622 5.36015517 4.4397348 7.98046875 6.74609375 C8.80933594 7.45378906 9.63820313 8.16148438 10.4921875 8.890625 C38.03494587 32.88784775 54.3345659 65.63682513 58.98046875 101.74609375 C61.73984603 146.21240979 49.55344587 184.98996431 20.375 218.76171875 C13.88188374 226.29172024 8.74764132 234.06066476 3.98046875 242.74609375 C3.41328125 243.74769531 2.84609375 244.74929688 2.26171875 245.78125 C-1.34193072 252.75872437 -2.93474348 259.51917362 -4.45703125 267.18359375 C-7.05721117 280.19078665 -10.86702031 292.46194444 -22.01953125 300.74609375 C-30.1310147 305.70736271 -38.06581969 308.04788759 -47.53417969 308.03662109 C-48.35633972 308.04333832 -49.17849976 308.05005554 -50.02557373 308.05697632 C-52.72674714 308.07587622 -55.42767095 308.07987665 -58.12890625 308.08203125 C-60.02069193 308.08846544 -61.91247662 308.09519426 -63.80426025 308.10220337 C-67.76503809 308.11415664 -71.72572885 308.11788627 -75.68652344 308.11669922 C-80.73783103 308.11649631 -85.78857428 308.14377868 -90.83974838 308.17824364 C-94.74679072 308.2005889 -98.65369897 308.20453441 -102.56079865 308.20347977 C-104.42175488 308.20582501 -106.28271541 308.21458721 -108.14360809 308.2301445 C-122.09852551 308.33587583 -133.91345292 307.1483987 -145.01953125 297.74609375 C-152.99780431 289.65522409 -156.65537241 279.85288039 -158.51953125 268.80859375 C-162.1679101 247.25161048 -174.47125609 229.09765723 -189.08203125 213.30859375 C-205.17069974 195.47616364 -215.05536069 172.0232106 -220.01953125 148.74609375 C-220.18727051 148.10438232 -220.35500977 147.4626709 -220.52783203 146.80151367 C-222.56152541 138.2787209 -222.41702937 129.64145388 -222.39453125 120.93359375 C-222.39365509 120.10973175 -222.39277893 119.28586975 -222.39187622 118.43704224 C-222.34650487 105.50934815 -221.65578216 93.22862847 -218.01953125 80.74609375 C-217.78878906 79.93543457 -217.55804688 79.12477539 -217.3203125 78.28955078 C-208.43981023 48.1181618 -190.22240232 20.69505773 -165.01953125 1.74609375 C-164.24480469 1.15570313 -163.47007812 0.5653125 -162.671875 -0.04296875 C-114.89644793 -34.97725432 -47.73400528 -35.63068699 0 0 Z " fill="#CE9A32" transform="translate(330.01953125,109.25390625)"/>
<path d="M0 0 C3.86669732 2.80090991 7.4594287 5.798864 11 9 C11.91523438 9.82113281 12.83046875 10.64226562 13.7734375 11.48828125 C31.60271305 28.34368881 44.40934446 53.80317708 45.23828125 78.53515625 C45.71233318 105.88689939 40.83177022 129.82894484 24 152 C23.30261719 152.92941406 22.60523438 153.85882813 21.88671875 154.81640625 C5.48289373 175.76551849 -18.60687852 189.97670165 -45 194 C-67.12403448 195.95795002 -87.82332211 192.22727595 -107 181 C-107.9796875 180.45601562 -108.959375 179.91203125 -109.96875 179.3515625 C-129.11276407 168.07419789 -141.53441421 150.62525243 -151 131 C-151.680625 129.64455078 -151.680625 129.64455078 -152.375 128.26171875 C-162.81566932 105.30040302 -161.77871993 75.98623136 -153.4921875 52.6484375 C-147.70191201 37.26062938 -139.52509646 24.6456879 -128 13 C-127.33355469 12.27296875 -126.66710937 11.5459375 -125.98046875 10.796875 C-93.25162999 -24.20575677 -38.51937554 -24.97561417 0 0 Z " fill="#FDFCFB" transform="translate(305,141)"/>
<path d="M0 0 C1 1 1 1 1.12025452 3.81568909 C1.11803391 5.07477585 1.11581329 6.33386261 1.11352539 7.63110352 C1.11367142 8.32375305 1.11381744 9.01640259 1.1139679 9.7300415 C1.11326874 12.02969446 1.10547628 14.32926737 1.09765625 16.62890625 C1.09579208 18.21931412 1.09436817 19.80972257 1.09336853 21.40013123 C1.08954329 25.5939593 1.07971295 29.78775295 1.06866455 33.98156738 C1.05665597 39.00923705 1.05204822 44.03691819 1.04621124 49.06459808 C1.03650119 56.70975602 1.01734471 64.35483838 1 72 C-14.51 72 -30.02 72 -46 72 C-47.4375 55.3125 -47.4375 55.3125 -47.88452148 50.0715332 C-48.00482383 48.68959656 -48.12533408 47.307678 -48.24609375 45.92578125 C-48.33558289 44.86296936 -48.33558289 44.86296936 -48.42687988 43.77868652 C-48.74877953 40.12643746 -49.19171824 36.57779056 -50 33 C-75.33565099 27.56399825 -101.319217 27.28473098 -124 41 C-138.09201725 50.25094873 -146.80456991 65.03853871 -150.45703125 81.30859375 C-150.63621094 82.19675781 -150.81539062 83.08492188 -151 84 C-151.17128418 84.76022461 -151.34256836 85.52044922 -151.51904297 86.30371094 C-155.41561977 108.14827652 -151.42460218 130.77000499 -138.8984375 149.0703125 C-128.06986319 163.11302194 -112.05890235 170.52105668 -94.83203125 173.55859375 C-77.6428556 175.53859054 -61.19909531 174.07466074 -45 168 C-44.67 154.8 -44.34 141.6 -44 128 C-59.84 128 -75.68 128 -92 128 C-92 117.44 -92 106.88 -92 96 C-53.72 96 -15.44 96 24 96 C24 106.56 24 117.12 24 128 C17.73 128 11.46 128 5 128 C5 149.12 5 170.24 5 192 C-18.64960774 203.31068196 -38.64269301 210.63146634 -64 214 C-64.73984131 214.103125 -65.47968262 214.20625 -66.24194336 214.3125 C-83.4045652 216.4965855 -101.13950343 215.7636134 -118 212 C-119.339769 211.73009744 -120.67961252 211.4605645 -122.01953125 211.19140625 C-148.48065487 205.55469804 -171.53922301 190.28441815 -186.64453125 167.80859375 C-203.48985243 141.42427247 -208.22600935 107.47848764 -202 77 C-201.77828125 75.79085937 -201.5565625 74.58171875 -201.328125 73.3359375 C-195.77753519 47.20627413 -179.85706685 23.57568225 -157.6875 8.625 C-144.81533317 0.32583981 -130.91568867 -5.57171699 -116 -9 C-115.29198242 -9.16371094 -114.58396484 -9.32742187 -113.85449219 -9.49609375 C-77.7004231 -17.35355645 -34.56470132 -12.09531944 0 0 Z " fill="#232492" transform="translate(1069,164)"/>
<path d="M0 0 C60.72 0 121.44 0 184 0 C184 23.43 184 46.86 184 71 C172.45 71 160.9 71 149 71 C148.505 66.111875 148.01 61.22375 147.5 56.1875 C147.34337891 54.64860107 147.18675781 53.10970215 147.02539062 51.52416992 C146.90357422 50.31349854 146.78175781 49.10282715 146.65625 47.85546875 C146.53056641 46.61434326 146.40488281 45.37321777 146.27539062 44.09448242 C146 41 146 41 146 38 C120.59 38 95.18 38 69 38 C69 56.15 69 74.3 69 93 C90.12 93 111.24 93 133 93 C133 103.56 133 114.12 133 125 C111.88 125 90.76 125 69 125 C69 142.82 69 160.64 69 179 C94.41 179 119.82 179 146 179 C146 176.03 146 173.06 146 170 C146.17482297 167.9528044 146.389076 165.90829549 146.65625 163.87109375 C146.77806641 162.91904053 146.89988281 161.9669873 147.02539062 160.98608398 C147.26032227 159.22953491 147.26032227 159.22953491 147.5 157.4375 C147.995 153.663125 148.49 149.88875 149 146 C160.55 146 172.1 146 184 146 C184 169.43 184 192.86 184 217 C123.28 217 62.56 217 0 217 C0 204.46 0 191.92 0 179 C7.26 179 14.52 179 22 179 C22 132.47 22 85.94 22 38 C14.74 38 7.48 38 0 38 C0 25.46 0 12.92 0 0 Z " fill="#222392" transform="translate(423,157)"/>
<path d="M0 0 C1.44149414 0.01353516 1.44149414 0.01353516 2.91210938 0.02734375 C5.25417805 0.05064792 7.59569792 0.08335942 9.9375 0.125 C9.9625883 4.17772458 9.98053967 8.23041786 9.99243164 12.28320312 C9.99739951 13.65625803 10.0041761 15.02930782 10.01293945 16.40234375 C10.06657915 25.03518006 9.83547465 33.53602941 8.9375 42.125 C7.63296875 42.16238281 6.3284375 42.19976562 4.984375 42.23828125 C-13.24289476 42.87204551 -29.10940383 45.49824983 -42.8125 58.65234375 C-57.95994996 75.29876011 -60.45964268 97.01773627 -60.75 118.5 C-60.78326556 120.21877444 -60.81776328 121.93752549 -60.85351562 123.65625 C-60.93960388 127.8125107 -61.00055138 131.96803395 -61.0625 136.125 C-53.8025 136.125 -46.5425 136.125 -39.0625 136.125 C-39.0625 147.015 -39.0625 157.905 -39.0625 169.125 C-69.0925 169.125 -99.1225 169.125 -130.0625 169.125 C-130.0625 158.235 -130.0625 147.345 -130.0625 136.125 C-122.8025 136.125 -115.5425 136.125 -108.0625 136.125 C-108.0625 102.795 -108.0625 69.465 -108.0625 35.125 C-115.3225 35.125 -122.5825 35.125 -130.0625 35.125 C-130.0625 24.235 -130.0625 13.345 -130.0625 2.125 C-107.2925 2.125 -84.5225 2.125 -61.0625 2.125 C-60.7325 12.025 -60.4025 21.925 -60.0625 32.125 C-57.4225 28.825 -54.7825 25.525 -52.0625 22.125 C-38.89431597 7.14051472 -19.70278126 -0.35648734 0 0 Z " fill="#242592" transform="translate(754.0625,204.875)"/>
<path d="M0 0 C0.90340118 -0.00511093 1.80680237 -0.01022186 2.73757935 -0.01548767 C5.70809656 -0.02932676 8.67838026 -0.02843111 11.64892578 -0.02612305 C13.72486456 -0.03001322 15.80080254 -0.03434856 17.8767395 -0.03910828 C22.22254011 -0.04655837 26.56825946 -0.04628807 30.9140625 -0.04101562 C36.46767359 -0.03522405 42.02095084 -0.05215051 47.57450676 -0.0753603 C51.86062547 -0.09013254 56.14666444 -0.09096456 60.43280411 -0.08785057 C62.47961208 -0.08836207 64.52642471 -0.0935675 66.57320786 -0.10366249 C69.44225148 -0.11607669 72.31065322 -0.10920528 75.1796875 -0.09765625 C76.01530212 -0.10529999 76.85091675 -0.11294373 77.71185303 -0.12081909 C83.76968479 -0.06724842 90.64146534 0.53433155 95.34994316 4.72657299 C100.55880131 10.85330913 99.96968962 16.03041263 100.0144043 23.8034668 C100.02587232 25.19028977 100.04624167 26.57707042 100.07592773 27.96362305 C100.39267524 42.76050913 100.39267524 42.76050913 95.71923828 49.2746582 C94.7853125 50.69584961 94.7853125 50.69584961 93.83251953 52.14575195 C91.310154 54.68676714 89.29565531 55.26262353 85.90673828 56.3371582 C81.33119529 58.43265657 79.38347592 60.36849998 77.52001953 64.9309082 C76.27024396 68.45723385 75.23340136 72.0224588 74.21923828 75.62231445 C72.70857071 80.73697438 70.82584773 83.87777348 66.30322266 86.87670898 C61.23906462 88.8520066 56.57884999 88.72310092 51.18798828 88.70825195 C50.07870972 88.7134938 48.96943115 88.71873566 47.82653809 88.72413635 C45.48658076 88.7305457 43.14659118 88.72923369 40.80664062 88.72070312 C37.23134949 88.71218705 33.65765325 88.74098185 30.08251953 88.77270508 C27.80517626 88.7743171 25.52783016 88.77373953 23.25048828 88.77075195 C22.18471558 88.78198593 21.11894287 88.79321991 20.02087402 88.80479431 C13.9451954 88.7478692 10.33118647 88.3590526 5.71923828 84.2746582 C1.05400011 77.73858848 -3.28076172 67.32453368 -3.28076172 59.2746582 C-4.14701172 59.1921582 -5.01326172 59.1096582 -5.90576172 59.0246582 C-12.77082685 57.49908817 -17.33465008 52.8677464 -21.28076172 47.2746582 C-25.18416675 40.50997788 -24.75970591 34.40792529 -24.71826172 26.7746582 C-24.73824219 25.46883789 -24.75822266 24.16301758 -24.77880859 22.81762695 C-24.77816406 21.55563477 -24.77751953 20.29364258 -24.77685547 18.9934082 C-24.7787085 17.84807617 -24.78056152 16.70274414 -24.7824707 15.52270508 C-23.94285214 10.08704311 -20.53395133 5.67720989 -16.28076172 2.2746582 C-10.76475275 0.30367945 -5.82388591 -0.01718331 0 0 Z " fill="#CE9930" transform="translate(210.28076171875,435.725341796875)"/>
<path d="M0 0 C4.15325472 0.34224394 6.16919411 2.82472815 8.984375 5.69140625 C9.44483215 6.15610825 9.90528931 6.62081024 10.37969971 7.09959412 C11.84367811 8.58031819 13.29686041 10.07114519 14.75 11.5625 C15.74279449 12.57034664 16.7362767 13.57751633 17.73046875 14.58398438 C20.16166473 17.04819461 22.58328868 19.52157329 25 22 C23.64768813 25.02977429 22.14519457 27.08472613 19.76953125 29.390625 C19.13080078 30.01839844 18.49207031 30.64617187 17.83398438 31.29296875 C17.16689453 31.93878906 16.49980469 32.58460938 15.8125 33.25 C11.25612918 37.68396086 6.8940997 42.18128034 2.74438477 46.99951172 C-0.22147991 50.40081265 -3.33373771 53.66243121 -6.4375 56.9375 C-7.84767271 58.43097405 -9.25782846 59.9244641 -10.66796875 61.41796875 C-11.74183838 62.55371338 -11.74183838 62.55371338 -12.83740234 63.71240234 C-16.31212617 67.38796819 -19.78186572 71.06821694 -23.25 74.75 C-24.24567993 75.80646729 -24.24567993 75.80646729 -25.26147461 76.88427734 C-29.37064662 81.25024082 -33.44622809 85.64511151 -37.5 90.0625 C-41.87966697 94.83425563 -46.37176495 99.46913742 -51 104 C-56.79835896 99.18562562 -62.12281785 94.00751568 -67.43359375 88.6640625 C-68.31153091 87.78471039 -69.18946808 86.90535828 -70.0940094 85.99935913 C-72.87754412 83.21025942 -75.65756769 80.41768982 -78.4375 77.625 C-80.33216665 75.7247458 -82.2275963 73.82525347 -84.12304688 71.92578125 C-88.75135161 67.28649396 -93.37678421 62.64435833 -98 58 C-96.42456807 53.75012016 -94.68349113 51.3287413 -91.4296875 48.13671875 C-90.53378906 47.25048828 -89.63789063 46.36425781 -88.71484375 45.45117188 C-87.77769531 44.53916016 -86.84054688 43.62714844 -85.875 42.6875 C-84.91988395 41.74744428 -83.96544933 40.80669569 -83.01171875 39.86523438 C-80.68109117 37.56991933 -78.34374804 35.28190354 -76 33 C-72.43235715 34.51376081 -70.16293713 36.60513129 -67.453125 39.3515625 C-66.60878906 40.20234375 -65.76445312 41.053125 -64.89453125 41.9296875 C-64.02183594 42.81914062 -63.14914063 43.70859375 -62.25 44.625 C-61.36183594 45.5221875 -60.47367188 46.419375 -59.55859375 47.34375 C-57.36783031 49.55807004 -55.18187237 51.77692435 -53 54 C-45.83885031 50.58992872 -40.94177141 43.99600271 -35.84765625 38.06640625 C-33.81089408 35.78850522 -31.67525925 33.64581412 -29.5 31.5 C-26.73439592 28.77170593 -24.08712969 26.01483166 -21.5625 23.0625 C-18.06488623 18.98059808 -14.26381231 15.24837644 -10.44140625 11.47265625 C-7.12881966 8.11766855 -4.05974713 4.58374052 -1 1 C-0.67 0.67 -0.34 0.34 0 0 Z " fill="#ECB248" transform="translate(284,178)"/>
<path d="M0 0 C5.27130954 2.33711782 9.10345644 6.30805474 11.375 11.6015625 C13.35842207 19.21294469 12.89042858 27.11288162 9.28125 34.125 C6.85879888 37.67005042 3.85275091 40.07362455 0 42 C-5.53042052 42.50502343 -10.41030524 42.73807257 -15.5 40.375 C-21.30636103 34.85895702 -23.07384842 30.18289562 -23.34326172 22.36425781 C-23.52042766 10.56228061 -23.52042766 10.56228061 -19.46484375 5.484375 C-13.64111066 -0.41700786 -8.08071344 -1.37859941 0 0 Z " fill="#F7F7F9" transform="translate(595,407)"/>
<path d="M0 0 C19.64285714 0 19.64285714 0 25 3 C28.46155522 6.73718257 28.50781218 9.66742108 28.35546875 14.5859375 C27.84769491 18.03433569 26.61776627 19.74581238 24 22 C21.859375 22.62109375 21.859375 22.62109375 20 23 C20.93493439 24.89709988 21.87306296 26.79262578 22.8125 28.6875 C23.33457031 29.74324219 23.85664062 30.79898437 24.39453125 31.88671875 C25.94289768 34.98369662 25.94289768 34.98369662 27.69921875 37.76953125 C29 40 29 40 29 42 C27.02 42 25.04 42 23 42 C22.443125 40.85660156 21.88625 39.71320313 21.3125 38.53515625 C20.54320581 37.04347605 19.77228652 35.55263318 19 34.0625 C18.63777344 33.30775391 18.27554688 32.55300781 17.90234375 31.77539062 C17.52207031 31.05673828 17.14179687 30.33808594 16.75 29.59765625 C16.41484375 28.93258057 16.0796875 28.26750488 15.734375 27.58227539 C13.39558424 25.14291128 13.39558424 25.14291128 6 25 C6 30.61 6 36.22 6 42 C4.02 42 2.04 42 0 42 C0 28.14 0 14.28 0 0 Z " fill="#404293" transform="translate(899,407)"/>
<path d="M0 0 C20.64705882 0 20.64705882 0 26.375 5.125 C28.6374909 9.12786851 28.81499093 12.50125008 28 17 C26.23759159 20.02127155 25.25488284 21.63361085 21.859375 22.625 C21.24578125 22.74875 20.6321875 22.8725 20 23 C20.93493439 24.89709988 21.87306296 26.79262578 22.8125 28.6875 C23.33457031 29.74324219 23.85664062 30.79898437 24.39453125 31.88671875 C25.94289768 34.98369662 25.94289768 34.98369662 27.69921875 37.76953125 C29 40 29 40 29 42 C26.3046875 42.4609375 26.3046875 42.4609375 23 42 C20.88280347 39.82720969 19.55213928 37.28510994 18.125 34.625 C17.7228125 33.92632812 17.320625 33.22765625 16.90625 32.5078125 C14 27.36750638 14 27.36750638 14 25 C11.36 25 8.72 25 6 25 C6 30.61 6 36.22 6 42 C4.02 42 2.04 42 0 42 C0 28.14 0 14.28 0 0 Z " fill="#31328E" transform="translate(615,407)"/>
<path d="M0 0 C1.98 0 3.96 0 6 0 C6 13.86 6 27.72 6 42 C3.69 42 1.38 42 -1 42 C-1.556875 41.00742187 -2.11375 40.01484375 -2.6875 38.9921875 C-7.75245161 29.97195187 -12.8573856 20.97619967 -18 12 C-18.33 21.9 -18.66 31.8 -19 42 C-20.98 42 -22.96 42 -25 42 C-25 28.47 -25 14.94 -25 1 C-18 1 -18 1 -16.18310547 2.69311523 C-15.74885254 3.47372314 -15.31459961 4.25433105 -14.8671875 5.05859375 C-14.37089844 5.92033203 -13.87460937 6.78207031 -13.36328125 7.66992188 C-12.87214844 8.58322266 -12.38101563 9.49652344 -11.875 10.4375 C-11.37613281 11.31599609 -10.87726562 12.19449219 -10.36328125 13.09960938 C-8.88227 15.71941388 -7.44063139 18.35778903 -6 21 C-4.35 23.97 -2.7 26.94 -1 30 C-0.67 20.1 -0.34 10.2 0 0 Z " fill="#414293" transform="translate(817,407)"/>
<path d="M0 0 C1.98 0 3.96 0 6 0 C6 13.86 6 27.72 6 42 C4.02 42 2.04 42 0 42 C-1.984375 39.7890625 -1.984375 39.7890625 -3.75 36.625 C-4.07291016 36.06079346 -4.39582031 35.49658691 -4.72851562 34.9152832 C-5.84192204 32.95555162 -6.9198778 30.97825742 -8 29 C-8.9097327 27.37533461 -9.82126773 25.75167744 -10.734375 24.12890625 C-13.18596913 19.76806028 -15.58993616 15.38497727 -18 11 C-18.33 20.9 -18.66 30.8 -19 41 C-20.65 41 -22.3 41 -24 41 C-24 27.8 -24 14.6 -24 1 C-22.02 1 -20.04 1 -18 1 C-16.0029622 3.43225006 -14.57383611 5.53797761 -13.0625 8.25 C-12.67126953 8.91257812 -12.28003906 9.57515625 -11.87695312 10.2578125 C-10.56335076 12.49283418 -9.28277261 14.74714237 -8 17 C-4.535 22.94 -4.535 22.94 -1 29 C-0.67 19.43 -0.34 9.86 0 0 Z " fill="#464794" transform="translate(721,407)"/>
<path d="M0 0 C5.27130954 2.33711782 9.10345644 6.30805474 11.375 11.6015625 C13.35842207 19.21294469 12.89042858 27.11288162 9.28125 34.125 C6.85879888 37.67005042 3.85275091 40.07362455 0 42 C-5.53042052 42.50502343 -10.41030524 42.73807257 -15.5 40.375 C-21.30636103 34.85895702 -23.07384842 30.18289562 -23.34326172 22.36425781 C-23.52042766 10.56228061 -23.52042766 10.56228061 -19.46484375 5.484375 C-13.64111066 -0.41700786 -8.08071344 -1.37859941 0 0 Z M-15 9 C-17.97595248 14.31591512 -18.95309124 19.98819375 -18 26 C-16.69307084 29.84706328 -14.92194428 32.94634939 -12.25 36 C-8.80817211 37.52970129 -5.64059742 37.74212178 -2 37 C1.49931337 34.79672862 3.45629951 33.03797366 5.375 29.375 C6.50281822 23.2847816 6.85223301 17.4669903 4.8125 11.5625 C2.39500013 8.14465535 0.36225364 5.46957577 -3.92578125 4.6171875 C-8.82329437 4.34049184 -11.66720808 5.19109495 -15 9 Z " fill="#292A88" transform="translate(595,407)"/>
<path d="M0 0 C1.90857441 0.94079905 3.75536343 2.00505912 5.5859375 3.08984375 C4.9259375 4.40984375 4.2659375 5.72984375 3.5859375 7.08984375 C2.7815625 6.75984375 1.9771875 6.42984375 1.1484375 6.08984375 C-3.15091615 4.88300764 -6.98725007 4.28125624 -11.4140625 5.08984375 C-14.77756218 7.66614138 -16.81097468 10.20165268 -18.4140625 14.08984375 C-19.1922448 20.68923392 -18.77624657 26.32609964 -15.4140625 32.08984375 C-12.38580385 34.91974484 -10.39714562 35.4624731 -6.2890625 35.33984375 C-5.42023437 35.324375 -4.55140625 35.30890625 -3.65625 35.29296875 C-1.37851878 35.22402685 -1.37851878 35.22402685 0.5859375 34.08984375 C1.05345538 31.7338514 1.05345538 31.7338514 1.2109375 29.02734375 C1.28570313 28.10824219 1.36046875 27.18914062 1.4375 26.2421875 C1.48648438 25.53191406 1.53546875 24.82164062 1.5859375 24.08984375 C-1.3840625 24.08984375 -4.3540625 24.08984375 -7.4140625 24.08984375 C-7.4140625 22.43984375 -7.4140625 20.78984375 -7.4140625 19.08984375 C-2.7940625 19.08984375 1.8259375 19.08984375 6.5859375 19.08984375 C6.74809814 22.00873523 6.86684952 24.918636 6.9609375 27.83984375 C7.01121094 28.66484375 7.06148437 29.48984375 7.11328125 30.33984375 C7.17087166 32.72024749 7.12516611 34.76930519 6.5859375 37.08984375 C2.63230125 40.9601202 -0.86012055 41.6785702 -6.2890625 41.71484375 C-11.94196686 41.52999139 -15.66139537 40.84632844 -19.859375 36.97265625 C-25.05346318 30.68232835 -26.14756746 24.31178711 -25.85546875 16.24609375 C-25.0479768 10.472169 -22.88325987 6.41669271 -18.65234375 2.4296875 C-12.95339362 -1.72025793 -6.6103057 -2.492235 0 0 Z " fill="#2B2D88" transform="translate(760.4140625,407.91015625)"/>
<path d="M0 0 C7.92 0 15.84 0 24 0 C24 1.65 24 3.3 24 5 C18.06 5 12.12 5 6 5 C6 9.29 6 13.58 6 18 C11.28 18 16.56 18 22 18 C22 19.65 22 21.3 22 23 C16.72 23 11.44 23 6 23 C6 27.62 6 32.24 6 37 C12.27 37 18.54 37 25 37 C25 38.65 25 40.3 25 42 C16.75 42 8.5 42 0 42 C0 28.14 0 14.28 0 0 Z " fill="#343690" transform="translate(833,407)"/>
<path d="M0 0 C7.92 0 15.84 0 24 0 C24 1.65 24 3.3 24 5 C18.06 5 12.12 5 6 5 C6 9.29 6 13.58 6 18 C10.95 18 15.9 18 21 18 C21 19.32 21 20.64 21 22 C16.05 22 11.1 22 6 22 C6 26.95 6 31.9 6 37 C12.27 37 18.54 37 25 37 C25 38.65 25 40.3 25 42 C16.75 42 8.5 42 0 42 C0 28.14 0 14.28 0 0 Z " fill="#424398" transform="translate(866,407)"/>
<path d="M0 0 C2.4375 1.75 2.4375 1.75 3.3125 3.9375 C3.35375 4.535625 3.395 5.13375 3.4375 5.75 C1.6875 6.375 1.6875 6.375 -0.5625 6.75 C-1.14 6.440625 -1.7175 6.13125 -2.3125 5.8125 C-5.81442816 4.1588117 -8.70823813 4.50133794 -12.5625 4.75 C-14.75141761 6.57473909 -14.75141761 6.57473909 -15.0625 9.125 C-14.80738741 11.94552223 -14.80738741 11.94552223 -12.3125 13.6875 C-8.11328204 16.18078566 -3.60771448 18.15716551 0.828125 20.1875 C3.62531363 21.86246325 4.44397181 22.69886905 5.4375 25.75 C5.89272199 30.75744188 5.5486205 33.74998792 2.4375 37.75 C-1.00427408 41.05570394 -3.74964343 41.18245929 -8.4375 41.1875 C-16.11687679 41.01951363 -16.11687679 41.01951363 -19.4375 39 C-21.5625 36.75 -21.5625 36.75 -21.5625 32.75 C-17.5625 32.75 -17.5625 32.75 -15.6328125 33.734375 C-13.09834734 34.97769753 -11.2476856 35.01677723 -8.4375 35 C-7.13425781 35.00773437 -7.13425781 35.00773437 -5.8046875 35.015625 C-3.36046113 34.9606341 -3.36046113 34.9606341 -1.5625 32.75 C-1.39568891 29.66652174 -1.39568891 29.66652174 -1.5625 26.75 C-2.06177002 26.50354736 -2.56104004 26.25709473 -3.07543945 26.00317383 C-5.34939669 24.87055652 -7.6120096 23.71686293 -9.875 22.5625 C-10.66068359 22.17513672 -11.44636719 21.78777344 -12.25585938 21.38867188 C-16.63030252 19.13629902 -19.60880271 17.50581292 -21.5625 12.75 C-21.99847191 9.26222468 -21.7970205 7.28075692 -20.375 4.0625 C-15.10615401 -2.65982075 -7.63239544 -2.67803349 0 0 Z " fill="#2B2D88" transform="translate(955.5625,408.25)"/>
<path d="M0 0 C7.92 0 15.84 0 24 0 C24 1.32 24 2.64 24 4 C17.73 4 11.46 4 5 4 C5 8.29 5 12.58 5 17 C10.28 17 15.56 17 21 17 C21 18.65 21 20.3 21 22 C16.05 22 11.1 22 6 22 C6 26.62 6 31.24 6 36 C12.27 36 18.54 36 25 36 C25 37.65 25 39.3 25 41 C16.75 41 8.5 41 0 41 C0 27.47 0 13.94 0 0 Z " fill="#252685" transform="translate(664,408)"/>
<path d="M0 0 C7.92 0 15.84 0 24 0 C24 1.65 24 3.3 24 5 C18.06 5 12.12 5 6 5 C6 9.29 6 13.58 6 18 C11.28 18 16.56 18 22 18 C22 19.98 22 21.96 22 24 C16.72 24 11.44 24 6 24 C6 29.94 6 35.88 6 42 C4.02 42 2.04 42 0 42 C0 28.14 0 14.28 0 0 Z " fill="#383991" transform="translate(543,407)"/>
<path d="M0 0 C4.62 0 9.24 0 14 0 C14 0.33 14 0.66 14 1 C11.03 1.66 8.06 2.32 5 3 C5 8.61 5 14.22 5 20 C7.97 20 10.94 20 14 20 C14 20.66 14 21.32 14 22 C15.32 22 16.64 22 18 22 C19.5625 23.94140625 19.5625 23.94140625 21 26.5625 C21.50789062 27.47128906 22.01578125 28.38007813 22.5390625 29.31640625 C23.02117188 30.20199219 23.50328125 31.08757812 24 32 C24.78959515 33.33456112 25.58092742 34.66809812 26.375 36 C28 39 28 39 28 41 C26.02 41 24.04 41 22 41 C20.49480613 38.37785672 18.99568681 35.75255792 17.5 33.125 C17.07074219 32.37863281 16.64148438 31.63226563 16.19921875 30.86328125 C15.79316406 30.14785156 15.38710938 29.43242187 14.96875 28.6953125 C14.59169922 28.03547363 14.21464844 27.37563477 13.82617188 26.69580078 C13 25 13 25 13 23 C10.03 23 7.06 23 4 23 C4 28.61 4 34.22 4 40 C2.68 40 1.36 40 0 40 C0 26.8 0 13.6 0 0 Z " fill="#212289" transform="translate(900,408)"/>
<path d="M0 0 C0.91143265 -0.00350464 1.8228653 -0.00700928 2.76191711 -0.01062012 C5.75647735 -0.01937992 8.75079895 -0.01361011 11.74536133 -0.00683594 C13.83327784 -0.00818389 15.92119405 -0.01012551 18.0091095 -0.01263428 C22.37589519 -0.01557745 26.74259886 -0.01131253 31.109375 -0.00195312 C36.70825542 0.00946214 42.30694452 0.00286368 47.90581799 -0.00909805 C52.2131749 -0.01632032 56.52048634 -0.01402739 60.82784462 -0.00884247 C62.89273412 -0.00750809 64.95762775 -0.00914628 67.02251244 -0.01380157 C69.90444284 -0.0188751 72.78606159 -0.01114579 75.66796875 0 C76.52155975 -0.00404846 77.37515076 -0.00809692 78.25460815 -0.01226807 C79.43407768 -0.00380859 79.43407768 -0.00380859 80.63737488 0.00482178 C81.3177843 0.00557583 81.99819372 0.00632988 82.69922161 0.00710678 C84.9988276 0.30533873 86.63061894 1.12875572 88.63989258 2.25878906 C86.76853638 2.25426476 86.76853638 2.25426476 84.859375 2.24964905 C73.08874716 2.22575073 61.3186538 2.23861452 49.5480957 2.28725529 C43.49697827 2.31108532 37.44641125 2.32206779 31.39526367 2.3034668 C25.5529042 2.28598398 19.71153252 2.30253966 13.86929321 2.34246635 C11.64305321 2.35174387 9.41672747 2.34885991 7.19052124 2.33348274 C4.06577709 2.31399882 0.94413624 2.33817658 -2.18041992 2.37231445 C-3.09608231 2.35649826 -4.01174469 2.34068207 -4.95515442 2.3243866 C-11.13660956 2.4539059 -14.29812185 4.12286544 -18.77267456 8.36807919 C-22.09671821 12.32717712 -22.62920619 15.43361218 -22.77416992 20.55566406 C-22.8128418 21.7609375 -22.85151367 22.96621094 -22.89135742 24.20800781 C-22.92229492 25.46226562 -22.95323242 26.71652344 -22.98510742 28.00878906 C-23.0237793 29.27851563 -23.06245117 30.54824219 -23.10229492 31.85644531 C-23.19654964 34.99041476 -23.28215908 38.12437855 -23.36010742 41.25878906 C-23.69010742 41.25878906 -24.02010742 41.25878906 -24.36010742 41.25878906 C-24.45951838 37.23876276 -24.53182805 33.21921943 -24.57983398 29.19824219 C-24.59986061 27.83255538 -24.62709074 26.46695338 -24.66186523 25.1015625 C-24.71077174 23.13091805 -24.7310209 21.15962924 -24.75073242 19.18847656 C-24.77167969 18.00495605 -24.79262695 16.82143555 -24.81420898 15.60205078 C-24.0658245 10.09217061 -20.65638718 5.69581287 -16.36010742 2.25878906 C-10.81728771 0.2732104 -5.85318987 -0.02795977 0 0 Z " fill="#CFAB5D" transform="translate(210.360107421875,435.7412109375)"/>
<path d="M0 0 C1.98 0 3.96 0 6 0 C6 13.86 6 27.72 6 42 C4.02 42 2.04 42 0 42 C0 28.14 0 14.28 0 0 Z " fill="#36378B" transform="translate(776,407)"/>
<path d="M0 0 C6 0 6 0 7.875 1.75 C9 4 9 4 9 8 C8.01 8.33 7.02 8.66 6 9 C5.67 19.23 5.34 29.46 5 40 C3.35 40 1.7 40 0 40 C0 26.8 0 13.6 0 0 Z " fill="#22227E" transform="translate(697,408)"/>
<path d="M0 0 C9.86360567 -0.35651587 9.86360567 -0.35651587 14.1875 1 C16.25316422 3.27935363 16.35199285 4.01792998 16.5 7 C16.3326033 9.60660579 16.17007022 10.74894396 14.6875 12.9375 C11.39585455 15.0100175 8.59067193 15.11156717 4.8125 15.0625 C3.224375 15.041875 1.63625 15.02125 0 15 C0 10.05 0 5.1 0 0 Z " fill="#F4F4F8" transform="translate(905,412)"/>
<path d="M0 0 C11.04815864 -0.29461756 11.04815864 -0.29461756 15 2 C16.52491998 5.04983996 16.23562548 7.6423369 16 11 C14.16884793 13.61593153 13.09031634 13.96989455 10 15 C8.27204648 15.06802967 6.54164635 15.08495645 4.8125 15.0625 C3.224375 15.041875 1.63625 15.02125 0 15 C0 10.05 0 5.1 0 0 Z " fill="#F4F4F8" transform="translate(621,412)"/>
<path d="M0 0 C1.98 0 3.96 0 6 0 C6.042721 1.66611905 6.04063832 3.33382885 6 5 C5.67 5.33 5.34 5.66 5 6 C4.84011509 8.51880517 4.74065775 11.01342266 4.68359375 13.53515625 C4.66281265 14.28840683 4.64203156 15.04165741 4.62062073 15.81773376 C4.55504575 18.2325599 4.49620379 20.64749798 4.4375 23.0625 C4.3943223 24.69597529 4.35070827 26.3294391 4.30664062 27.96289062 C4.19935638 31.97514464 4.09811179 35.98751164 4 40 C2.68 40 1.36 40 0 40 C0 26.8 0 13.6 0 0 Z " fill="#1E1E83" transform="translate(793,408)"/>
<path d="M0 0 C7.59 0 15.18 0 23 0 C23 1.32 23 2.64 23 4 C17.06 4 11.12 4 5 4 C5 8.62 5 13.24 5 18 C3.35 18.66 1.7 19.32 0 20 C0 13.4 0 6.8 0 0 Z " fill="#1C1D80" transform="translate(867,408)"/>
<path d="M0 0 C0.33 0 0.66 0 1 0 C1 10.56 1 21.12 1 32 C-20.12 32 -41.24 32 -63 32 C-63 31.34 -63 30.68 -63 30 C-62.25275665 29.98969254 -61.50551331 29.97938507 -60.73562622 29.96876526 C-53.70185331 29.87088553 -46.6681666 29.76838477 -39.63453865 29.66066074 C-36.0182718 29.60543946 -32.40199685 29.55202076 -28.78564453 29.50268555 C-25.29724878 29.45503022 -21.8089523 29.40268704 -18.3206749 29.34705925 C-16.33867812 29.31668768 -14.35660845 29.29120213 -12.37454224 29.26576233 C-11.17344818 29.24581711 -9.97235413 29.22587189 -8.73486328 29.20532227 C-7.14268478 29.18200584 -7.14268478 29.18200584 -5.51834106 29.15821838 C-3.00420764 29.16470819 -3.00420764 29.16470819 -1 28 C-0.67 18.76 -0.34 9.52 0 0 Z " fill="#56579C" transform="translate(555,250)"/>
<path d="M0 0 C0.33 0 0.66 0 1 0 C1 13.2 1 26.4 1 40 C2.32 40 3.64 40 5 40 C4.98952637 38.99622314 4.97905273 37.99244629 4.96826172 36.95825195 C4.93196547 33.22163482 4.9090646 29.48503317 4.89013672 25.74829102 C4.88010104 24.13335547 4.86646949 22.518438 4.84912109 20.90356445 C4.82476535 18.57759125 4.81349253 16.25185905 4.8046875 13.92578125 C4.79436493 13.20787918 4.78404236 12.48997711 4.77340698 11.75032043 C4.77251097 7.71500132 5.21042318 4.63178826 7 1 C10.22269618 4.79817765 12.74520378 8.57391854 15 13 C14.67 13.66 14.34 14.32 14 15 C13.01 14.67 12.02 14.34 11 14 C10.67 14.66 10.34 15.32 10 16 C9.01 14.35 8.02 12.7 7 11 C6.67 20.9 6.34 30.8 6 41 C4.02 41 2.04 41 0 41 C0 27.47 0 13.94 0 0 Z " fill="#4E4F92" transform="translate(792,408)"/>
<path d="M0 0 C1.32 0 2.64 0 4 0 C4 13.2 4 26.4 4 40 C2.02 40 0.04 40 -2 40 C-2 39.67 -2 39.34 -2 39 C-0.35 39 1.3 39 3 39 C2.67 36.03 2.34 33.06 2 30 C1.34 30 0.68 30 0 30 C0 20.1 0 10.2 0 0 Z " fill="#1F2087" transform="translate(818,408)"/>
<path d="M0 0 C0.33 0 0.66 0 1 0 C1 4.62 1 9.24 1 14 C7.27 14 13.54 14 20 14 C20 15.65 20 17.3 20 19 C11.75 19 3.5 19 -5 19 C-5 18.67 -5 18.34 -5 18 C2.92 18 10.84 18 19 18 C17.98363023 16.76078789 17.98363023 16.76078789 15.86694336 16.88647461 C14.49227905 16.89432983 14.49227905 16.89432983 13.08984375 16.90234375 C11.60581055 16.90717773 11.60581055 16.90717773 10.09179688 16.91210938 C8.53041992 16.92467773 8.53041992 16.92467773 6.9375 16.9375 C5.37032227 16.94426758 5.37032227 16.94426758 3.77148438 16.95117188 C1.1809334 16.96300087 -1.40950559 16.97948311 -4 17 C-4 15.35 -4 13.7 -4 12 C-3.01 11.67 -2.02 11.34 -1 11 C-0.67 7.37 -0.34 3.74 0 0 Z " fill="#3E4097" transform="translate(669,430)"/>
<path d="M0 0 C0.66 0 1.32 0 2 0 C3.3671875 1.94140625 3.3671875 1.94140625 4.875 4.5625 C5.4009375 5.47128906 5.926875 6.38007813 6.46875 7.31640625 C6.9740625 8.20199219 7.479375 9.08757812 8 10 C8.4228125 10.71027344 8.845625 11.42054688 9.28125 12.15234375 C12 16.74508929 12 16.74508929 12 19 C10.02 19 8.04 19 6 19 C3.03 13.72 0.06 8.44 -3 3 C-2.01 2.01 -1.02 1.02 0 0 Z " fill="#2C2C88" transform="translate(916,430)"/>
<path d="M0 0 C1.32 0 2.64 0 4 0 C4 9.57 4 19.14 4 29 C2.66666667 29 1.33333333 29 0 29 C0 19.43 0 9.86 0 0 Z " fill="#1D1E87" transform="translate(722,408)"/>
<path d="M0 0 C0.33 1.32 0.66 2.64 1 4 C7.6 4 14.2 4 21 4 C21 5.32 21 6.64 21 8 C13.08 8 5.16 8 -3 8 C-3 5.69 -3 3.38 -3 1 C-2.01 0.67 -1.02 0.34 0 0 Z " fill="#1C1E82" transform="translate(870,440)"/>
<path d="M0 0 C3.24636818 1.33673984 4.35670744 2.84364133 6.125 5.875 C6.45002272 8.90685255 6.36311851 11.838989 6.125 14.875 C5.465 14.875 4.805 14.875 4.125 14.875 C3.795 14.215 3.465 13.555 3.125 12.875 C2.135 13.205 1.145 13.535 0.125 13.875 C-0.535 10.245 -1.195 6.615 -1.875 2.875 C-2.535 2.875 -3.195 2.875 -3.875 2.875 C-3.875 2.215 -3.875 1.555 -3.875 0.875 C-1.875 -0.125 -1.875 -0.125 0 0 Z " fill="#2B2B84" transform="translate(636.875,409.125)"/>
<path d="M0 0 C2 2 2 2 2.1953125 4.6015625 C2.17210937 5.59929687 2.14890625 6.59703125 2.125 7.625 C2.10695313 8.62789063 2.08890625 9.63078125 2.0703125 10.6640625 C2.03550781 11.82035156 2.03550781 11.82035156 2 13 C-0.875 13.1875 -0.875 13.1875 -4 13 C-6.29013653 9.5647952 -6.17842973 8.014669 -6 4 C-5.01 4 -4.02 4 -3 4 C-1.29467677 2.05990478 -1.29467677 2.05990478 0 0 Z " fill="#252990" transform="translate(724,435)"/>
<path d="M0 0 C4.62 0 9.24 0 14 0 C14 5.94 14 11.88 14 18 C13.67 18 13.34 18 13 18 C13 12.39 13 6.78 13 1 C12.01 1.33 11.02 1.66 10 2 C9.67 2.99 9.34 3.98 9 5 C6.03 5 3.06 5 0 5 C0 3.35 0 1.7 0 0 Z " fill="#363785" transform="translate(753,427)"/>
<path d="M0 0 C-0.86625 0.37125 -1.7325 0.7425 -2.625 1.125 C-7.36448792 3.75804884 -11.25374846 6.76124538 -13 12 C-13.15029988 14.06362991 -13.24844448 16.13123915 -13.31640625 18.19921875 C-13.35830078 19.40771484 -13.40019531 20.61621094 -13.44335938 21.86132812 C-13.48267578 23.12396484 -13.52199219 24.38660156 -13.5625 25.6875 C-13.60568359 26.96173828 -13.64886719 28.23597656 -13.69335938 29.54882812 C-13.7995486 32.69910852 -13.90159533 35.84946839 -14 39 C-14.33 39 -14.66 39 -15 39 C-15.09941096 34.9799737 -15.17172063 30.96043037 -15.21972656 26.93945312 C-15.23975319 25.57376632 -15.26698332 24.20816431 -15.30175781 22.84277344 C-15.35066432 20.87212898 -15.37091347 18.90084017 -15.390625 16.9296875 C-15.41157227 15.74616699 -15.43251953 14.56264648 -15.45410156 13.34326172 C-14.6861057 7.68899537 -11.2221183 3.67732884 -7 0 C-3.86650268 -1.04449911 -3.01031744 -0.93423645 0 0 Z " fill="#C9A355" transform="translate(201,438)"/>
<path d="M0 0 C0.99 0 1.98 0 3 0 C3 5.61 3 11.22 3 17 C2.34 16.01 1.68 15.02 1 14 C0.34 14 -0.32 14 -1 14 C-1.02685938 11.85423363 -1.04633088 9.70837355 -1.0625 7.5625 C-1.07410156 6.36753906 -1.08570313 5.17257812 -1.09765625 3.94140625 C-1 1 -1 1 0 0 Z " fill="#1A1A80" transform="translate(763,428)"/>
<path d="M0 0 C0.66 0.33 1.32 0.66 2 1 C2 5.62 2 10.24 2 15 C0.68 15 -0.64 15 -2 15 C-2.05386629 12.87527424 -2.09273071 10.75016348 -2.125 8.625 C-2.14820313 7.44164062 -2.17140625 6.25828125 -2.1953125 5.0390625 C-2 2 -2 2 0 0 Z " fill="#1B1B80" transform="translate(700,433)"/>
<path d="M0 0 C0.66 0 1.32 0 2 0 C2 5.94 2 11.88 2 18 C1.01 18 0.02 18 -1 18 C-1.02684312 15.18743719 -1.04676188 12.37512759 -1.0625 9.5625 C-1.07087891 8.76005859 -1.07925781 7.95761719 -1.08789062 7.13085938 C-1.0965143 5.08704779 -1.0522815 3.04316098 -1 1 C-0.67 0.67 -0.34 0.34 0 0 Z " fill="#202292" transform="translate(795,428)"/>
<path d="M0 0 C-1.31307372 2.89852365 -2.72684638 4.98277217 -4.96875 7.234375 C-5.82533203 8.09482422 -5.82533203 8.09482422 -6.69921875 8.97265625 C-7.59060547 9.85244141 -7.59060547 9.85244141 -8.5 10.75 C-9.09425781 11.35199219 -9.68851563 11.95398438 -10.30078125 12.57421875 C-10.87183594 13.14269531 -11.44289062 13.71117187 -12.03125 14.296875 C-12.55267578 14.81604492 -13.07410156 15.33521484 -13.61132812 15.87011719 C-15 17 -15 17 -17 17 C-17 17.66 -17 18.32 -17 19 C-17.66 18.67 -18.32 18.34 -19 18 C-3.81564246 0 -3.81564246 0 0 0 Z " fill="#FAF5E3" transform="translate(187,146)"/>
<path d="M0 0 C0.33 0.66 0.66 1.32 1 2 C-3.65859564 7.66585956 -3.65859564 7.66585956 -5.46875 9.4375 C-7.23316355 11.23792199 -8.69148189 13.15956434 -10.1875 15.1875 C-10.71730469 15.90292969 -11.24710938 16.61835938 -11.79296875 17.35546875 C-12.19128906 17.89816406 -12.58960938 18.44085938 -13 19 C-13.66 18.67 -14.32 18.34 -15 18 C-13.52357373 12.77345099 -10.17768064 9.83173561 -6.375 6.1875 C-5.76398438 5.59001953 -5.15296875 4.99253906 -4.5234375 4.37695312 C-3.02235161 2.91104894 -1.51207138 1.45457007 0 0 Z " fill="#E7C070" transform="translate(201,218)"/>
<path d="M0 0 C0.66 0.99 1.32 1.98 2 3 C2.66 2.67 3.32 2.34 4 2 C4.66 2.66 5.32 3.32 6 4 C5.01 5.98 4.02 7.96 3 10 C2.236875 9.835 1.47375 9.67 0.6875 9.5 C-2.03596236 8.90854604 -2.03596236 8.90854604 -5 9 C-4.0409375 7.88625 -4.0409375 7.88625 -3.0625 6.75 C-1.21666593 4.2888879 -0.43930826 2.96533074 0 0 Z " fill="#343691" transform="translate(600,433)"/>
<path d="M0 0 C0.66 1.32 1.32 2.64 2 4 C0.37660195 5.70884005 -1.29319053 7.37446717 -3 9 C-3.66 9 -4.32 9 -5 9 C-4.67 10.32 -4.34 11.64 -4 13 C-4.66 13 -5.32 13 -6 13 C-6.35474551 9.92553889 -6.53698855 7.05872891 -6 4 C-3 1.4375 -3 1.4375 0 0 Z " fill="#33348E" transform="translate(640,421)"/>
<path d="M0 0 C0.33 0.66 0.66 1.32 1 2 C-3.46351289 7.22325977 -8.0744893 12.20922972 -13 17 C-13.66 16.67 -14.32 16.34 -15 16 C-10.23991693 10.4069024 -5.25404324 5.13122145 0 0 Z " fill="#E7B659" transform="translate(274,189)"/>
<path d="M0 0 C4.62 0 9.24 0 14 0 C14 0.33 14 0.66 14 1 C12.58398286 1.48108275 11.16715563 1.95978141 9.75 2.4375 C8.96109375 2.70433594 8.1721875 2.97117187 7.359375 3.24609375 C5 4 5 4 2.765625 4.47265625 C1.89164063 4.73369141 1.89164063 4.73369141 1 5 C0.67 5.66 0.34 6.32 0 7 C0 4.69 0 2.38 0 0 Z " fill="#1B1C80" transform="translate(900,408)"/>
<path d="M0 0 C0.66 0.66 1.32 1.32 2 2 C0.28001336 3.801317 -1.45002291 5.59068463 -3.1875 7.375 C-3.91163086 8.13683594 -3.91163086 8.13683594 -4.65039062 8.9140625 C-7.56117467 11.88345293 -10.00455339 13.78748787 -14 15 C-9.59156563 9.70987876 -4.92440206 4.81191572 0 0 Z " fill="#30318C" transform="translate(903,179)"/>
<path d="M0 0 C0 3.63 0 7.26 0 11 C-1.32 11 -2.64 11 -4 11 C-4.3682455 3.51234156 -4.3682455 3.51234156 -2.5625 1 C-1 0 -1 0 0 0 Z " fill="#222490" transform="translate(781,437)"/>
<path d="M0 0 C0.66 0 1.32 0 2 0 C2.08086147 1.79093191 2.13912702 3.58289628 2.1875 5.375 C2.22230469 6.37273437 2.25710938 7.37046875 2.29296875 8.3984375 C2.19628906 9.25695312 2.09960938 10.11546875 2 11 C1.01 11.66 0.02 12.32 -1 13 C-1.02686553 11.02090602 -1.04633375 9.04171029 -1.0625 7.0625 C-1.07410156 5.96035156 -1.08570313 4.85820312 -1.09765625 3.72265625 C-1 1 -1 1 0 0 Z " fill="#232394" transform="translate(699,422)"/>
<path d="M0 0 C0.33 0.99 0.66 1.98 1 3 C-2.3 6.3 -5.6 9.6 -9 13 C-9.66 12.67 -10.32 12.34 -11 12 C-7.37 8.04 -3.74 4.08 0 0 Z " fill="#E6BE6F" transform="translate(249,215)"/>
<path d="M0 0 C0.33 0.66 0.66 1.32 1 2 C-0.09346881 3.34212062 -1.2001575 4.67347975 -2.3125 6 C-3.23482422 7.11375 -3.23482422 7.11375 -4.17578125 8.25 C-6 10 -6 10 -9 10 C-6.03 6.7 -3.06 3.4 0 0 Z " fill="#CEAB5F" transform="translate(154,120)"/>
<path d="M0 0 C0.99 0 1.98 0 3 0 C2.88637738 1.4800841 2.75877092 2.95910074 2.625 4.4375 C2.52058594 5.67306641 2.52058594 5.67306641 2.4140625 6.93359375 C2.27742187 7.61550781 2.14078125 8.29742187 2 9 C1.01 9.495 1.01 9.495 0 10 C0.020625 9.2575 0.04125 8.515 0.0625 7.75 C0.10240811 5.05832211 0.10240811 5.05832211 -0.5625 2.75 C-0.706875 2.1725 -0.85125 1.595 -1 1 C-0.67 0.67 -0.34 0.34 0 0 Z " fill="#1D1F8A" transform="translate(763,428)"/>
<path d="M0 0 C1.32 0.33 2.64 0.66 4 1 C2.02 3.31 0.04 5.62 -2 8 C-2.66 7.67 -3.32 7.34 -4 7 C-2.92598892 4.08482708 -2.22189824 2.22189824 0 0 Z " fill="#E7B95E" transform="translate(190,229)"/>
<path d="M0 0 C0.66 0 1.32 0 2 0 C2.33 1.65 2.66 3.3 3 5 C4.65 4.67 6.3 4.34 8 4 C8.33 4.99 8.66 5.98 9 7 C6.1875 7.3125 6.1875 7.3125 3 7 C1.11400657 4.61107499 0 3.08148442 0 0 Z " fill="#373982" transform="translate(635,442)"/>
<path d="M0 0 C0 4.38968456 -2.12805101 5.76905739 -5 9 C-5.66 8.67 -6.32 8.34 -7 8 C-4.69 5.36 -2.38 2.72 0 0 Z " fill="#E7BF71" transform="translate(266,197)"/>
<path d="M0 0 C0.33 0.99 0.66 1.98 1 3 C-0.28965176 4.37562854 -1.62689293 5.70766393 -3 7 C-3.66 7 -4.32 7 -5 7 C-3.70700306 4.11562221 -2.34058637 2.12780579 0 0 Z " fill="#F9F1D5" transform="translate(283,228)"/>
</svg>
